<?xml version="1.0" encoding="UTF-8"?>
<svg id="objects" xmlns="http://www.w3.org/2000/svg" version="1.1" viewBox="0 0 1488.391 924.965">
  <!-- Generator: Adobe Illustrator 30.5.1, SVG Export Plug-In . SVG Version: 2.1.4 Build 3)  -->
  <g>
    <path d="M409.564,608.123c-197.707,0-408.289,64.173-408.289,64.173v7.214c7.441-5.696,239.028-64.365,317.865-53.241v59.63h5.211v-59.772h-.001c13.19-3.699,42.085-11.41,82.831-11.41,40.023,0,60.672,4.54,76.869,7.155v64.027h5.211v-63.904c10.125-2.86,29.729-3.491,54.893-2.628l.098-6.071c-45.319-3.152-91.288-5.172-134.687-5.172h0Z" fill="#f5ff6d"/>
    <path d="M1.276,679.894v-.384c-.243.186-.247.315,0,.384Z" fill="#fdf9e6"/>
  </g>
  <line x1="524.046" y1="777.491" x2="566.922" y2="777.491" fill="none" stroke="#411454" stroke-miterlimit="10" stroke-width="2.001"/>
  <line x1="786.579" y1="777.491" x2="916.931" y2="777.491" fill="none" stroke="#411454" stroke-miterlimit="10" stroke-width="2.001"/>
  <g>
    <g>
      <path d="M955.193,723.509c.462-.055.92-.166,1.367-.337,2.836-1.083,4.39-4.237,4.059-7.664" fill="none" stroke="#411454" stroke-miterlimit="10" stroke-width="2.001"/>
      <line x1="961.275" y1="792.155" x2="963.568" y2="830.001" fill="none" stroke="#411454" stroke-miterlimit="10" stroke-width="2.001"/>
      <line x1="944.284" y1="801.025" x2="918.346" y2="828.85" fill="none" stroke="#411454" stroke-miterlimit="10" stroke-width="2.001"/>
      <path d="M942.336,736.368c-4.595,8.512-7.057,15.03-7.057,21.317,0,6.104,6.199,14.512,9.243,18.274.852,1.053,2.441,1.097,3.36.102.656-.711.782-1.76.304-2.602-1.699-2.991-5.493-10.145-5.789-14.88-.382-6.117,4.716-14.62,4.716-14.62" fill="none" stroke="#411454" stroke-miterlimit="10" stroke-width="2.001"/>
    </g>
    <polyline points="932.022 760.466 928.721 760.466 928.721 784.047 966.45 784.047 966.45 760.466 949.472 760.466" fill="none" stroke="#411454" stroke-miterlimit="10" stroke-width="2.001"/>
    <path d="M956.31,759.523s-.792-13.734-5.144-23.019" fill="none" stroke="#411454" stroke-miterlimit="10" stroke-width="2.001"/>
    <line x1="958.904" y1="829.321" x2="953.245" y2="792.064" fill="none" stroke="#411454" stroke-miterlimit="10" stroke-width="2.001"/>
    <line x1="916.931" y1="822.719" x2="939.096" y2="793.479" fill="none" stroke="#411454" stroke-miterlimit="10" stroke-width="2.001"/>
    <path d="M927.435,796.477c2.614-3.276,7.619-4.357,11.351-2.452,1.846.942,3.432,2.529,5.481,2.84,4.631.702,7.833-5.283,12.501-5.672,2.506-.209,4.797,1.25,7.067,2.332,2.269,1.082,5.174,1.755,7.141.188" fill="none" stroke="#411454" stroke-miterlimit="10" stroke-width="2.001"/>
    <path d="M937.21,733.113c-3.294-2.635-4.638-7.074-.236-11.79,4.402-4.716,5.109-11.79,6.996-14.306,1.886-2.515,5.288-5.18,9.747-4.559,6.209.865,10.611,8.253,6.603,10.611-3.575,2.103-10.454-.393-11.083,4.244s6.367,13.205-.707,17.214c-4.472,2.534-9.747-.157-11.319-1.415h0Z" fill="none" stroke="#411454" stroke-miterlimit="10" stroke-width="2.001"/>
    <path d="M955.131,731.226c.472,5.895,5.43,10.411,6.131,14.148.707,3.773-1.179,8.253-1.415,12.262" fill="none" stroke="#411454" stroke-miterlimit="10" stroke-width="2.001"/>
  </g>
  <line x1="25.748" y1="707.679" x2="462.528" y2="707.679" fill="none" stroke="#fff" stroke-dasharray="10 20" stroke-miterlimit="10" stroke-width="2"/>
  <line x1="999.572" y1="876.201" x2="1436.352" y2="876.201" fill="none" stroke="#fff" stroke-dasharray="10 20" stroke-miterlimit="10" stroke-width="2"/>
  <line x1="375.724" y1="685.296" x2="463.078" y2="685.296" fill="none" stroke="#fff" stroke-dasharray="10 20" stroke-miterlimit="10" stroke-width="2"/>
  <line x1="82.897" y1="740.025" x2="170.251" y2="740.025" fill="none" stroke="#fff" stroke-dasharray="10 20" stroke-miterlimit="10" stroke-width="2"/>
  <path d="M519.543,732.19c-.759,4.073,1.122,8.345,4.956,10.439,3.834,2.093,8.445,1.365,11.461-1.476l-16.417-8.963Z" fill="#72be4a"/>
  <line x1="331.073" y1="502.503" x2="331.073" y2="508.356" fill="none" stroke="#fff" stroke-miterlimit="10" stroke-width="2"/>
  <g>
    <line x1="1420.152" y1="776.821" x2="1420.152" y2="708.568" fill="none" stroke="#411454" stroke-miterlimit="10" stroke-width="2.001"/>
    <polygon points="1388.251 732.092 1420.152 645.616 1452.053 732.092 1388.251 732.092" fill="#72be4a"/>
  </g>
  <g>
    <line x1="1378.585" y1="777.135" x2="1378.585" y2="692.02" fill="none" stroke="#411454" stroke-miterlimit="10" stroke-width="2.001"/>
    <polygon points="1338.803 721.356 1378.585 613.516 1418.367 721.356 1338.803 721.356" fill="none" stroke="#411454" stroke-miterlimit="10" stroke-width="2.001"/>
  </g>
  <path d="M1249.523,777.159c-2.536-6.363,4.559-12.759,11.331-13.791,6.772-1.032,13.837.821,20.471-.888,9.135-2.354,15.17-10.7,21.465-17.726,6.295-7.026,15.383-13.648,24.423-10.951,6.432,1.919,10.607,7.971,16.063,11.882,4.693,3.363,10.495,5.149,16.266,5.007,7.837-.193,16.638-3.563,22.9,1.153,4.977,3.748,6.09,11.339,11.426,14.554,3.363,2.026,7.559,1.783,11.421,2.49s9.049,5.163,9.015,9.089l-164.781-.817v-.002Z" fill="#72be4a"/>
  <path d="M1256.943,667.419c3.646,5.097,10.277,7.524,16.578,5.537s10.341-7.778,10.404-14.044l-26.982,8.507Z" fill="#72be4a"/>
  <path d="M1284.371,705.593c-.759,4.073,1.122,8.345,4.956,10.439,3.834,2.093,8.445,1.365,11.461-1.476l-16.417-8.963h0Z" fill="#fdf9e6"/>
  <path d="M1478.51,691.907c-2.665,3.173-3.129,7.817-.822,11.526,2.308,3.709,6.68,5.344,10.703,4.355l-9.882-15.881h0Z" fill="#fdf9e6"/>
  <line x1="984.721" y1="844.506" x2="1061.041" y2="844.506" fill="none" stroke="#fff" stroke-miterlimit="10" stroke-width="2"/>
  <line x1="465.075" y1="923.965" x2="644.999" y2="923.965" fill="none" stroke="#fff" stroke-miterlimit="10" stroke-width="2"/>
  <line x1="78.221" y1="867.593" x2="651.511" y2="867.593" fill="none" stroke="#fff" stroke-miterlimit="10" stroke-width="2"/>
  <line x1="714.735" y1="910.617" x2="1183.677" y2="910.617" fill="none" stroke="#fff" stroke-miterlimit="10" stroke-width="2"/>
  <g>
    <rect x="309.427" y="503.776" width="22.186" height="22.186" fill="#72be4a"/>
    <rect x="367.314" y="503.776" width="22.186" height="22.186" fill="#72be4a"/>
    <rect x="462.93" y="503.776" width="22.186" height="22.186" fill="#72be4a"/>
    <g>
      <rect x="309.427" y="561.663" width="22.186" height="22.186" fill="#72be4a"/>
      <rect x="367.314" y="561.663" width="22.186" height="22.186" fill="#72be4a"/>
    </g>
  </g>
  <rect x="516.576" y="503.776" width="22.186" height="22.186" fill="#fff"/>
  <rect x="566.591" y="503.776" width="22.186" height="22.186" fill="none" stroke="#411454" stroke-miterlimit="10" stroke-width="2.001"/>
  <rect x="516.576" y="561.663" width="22.186" height="22.186" fill="none" stroke="#411454" stroke-miterlimit="10" stroke-width="2.001"/>
  <rect x="666.634" y="503.776" width="22.186" height="22.186" fill="#72be4a"/>
  <rect x="724.521" y="503.776" width="22.186" height="22.186" fill="#72be4a"/>
  <polyline points="615.248 447.684 527.361 406.132 437.35 447.684" fill="none" stroke="#411454" stroke-miterlimit="10" stroke-width="2.001"/>
  <polyline points="796.089 529.241 796.089 450.469 705.258 396.705 615.248 447.684" fill="none" stroke="#411454" stroke-linejoin="round" stroke-width="2.001"/>
  <polyline points="437.35 447.684 349.464 386.794 256.436 450.469 256.436 596.691" fill="none" stroke="#411454" stroke-linejoin="round" stroke-width="2.001"/>
  <line x1="615.412" y1="447.684" x2="615.412" y2="514.869" fill="none" stroke="#411454" stroke-miterlimit="10" stroke-width="2.001"/>
  <line x1="437.35" y1="445.47" x2="437.35" y2="581.773" fill="none" stroke="#411454" stroke-miterlimit="10" stroke-width="2.001"/>
  <path d="M1218.637,615.253c3.646,5.097,10.277,7.524,16.578,5.537s10.341-7.778,10.404-14.044l-26.982,8.507Z" fill="#72be4a"/>
  <path d="M504.682,705.593c-.759,4.073,1.122,8.345,4.956,10.439,3.834,2.093,8.445,1.365,11.461-1.476l-16.417-8.963Z" fill="#fdf9e6"/>
  <g>
    <path d="M1.184,671.694s210.581-64.173,408.289-64.173c43.399,0,89.368,2.02,134.687,5.172" fill="none" stroke="#411454" stroke-miterlimit="10" stroke-width="2.001"/>
    <path d="M1.184,679.292c-7.928-2.206,242.711-66.723,320.894-53.155,11.99-3.372,41.859-12.023,85.011-12.023s63.787,5.279,80.596,7.731c9.612-3.247,29.928-3.989,56.377-3.082" fill="none" stroke="#411454" stroke-miterlimit="10" stroke-width="2.001"/>
    <line x1="489.169" y1="621.156" x2="489.169" y2="685.296" fill="none" stroke="#411454" stroke-miterlimit="10" stroke-width="2.001"/>
    <line x1="483.958" y1="621.156" x2="483.958" y2="685.296" fill="none" stroke="#411454" stroke-miterlimit="10" stroke-width="2.001"/>
    <line x1="324.259" y1="625.524" x2="324.259" y2="685.296" fill="none" stroke="#411454" stroke-miterlimit="10" stroke-width="2.001"/>
    <line x1="319.048" y1="625.524" x2="319.048" y2="685.296" fill="none" stroke="#411454" stroke-miterlimit="10" stroke-width="2.001"/>
    <line x1="274.149" y1="624.834" x2="274.149" y2="693.099" fill="none" stroke="#411454" stroke-miterlimit="10" stroke-width="2.001"/>
    <line x1="237.66" y1="628.94" x2="237.66" y2="693.099" fill="none" stroke="#411454" stroke-miterlimit="10" stroke-width="2.001"/>
    <line x1="202.788" y1="633.239" x2="202.788" y2="693.099" fill="none" stroke="#411454" stroke-miterlimit="10" stroke-width="2.001"/>
    <line x1="174.028" y1="638.178" x2="174.028" y2="693.099" fill="none" stroke="#411454" stroke-miterlimit="10" stroke-width="2.001"/>
    <line x1="149.403" y1="642.883" x2="149.403" y2="693.099" fill="none" stroke="#411454" stroke-miterlimit="10" stroke-width="2.001"/>
    <line x1="126.574" y1="647.011" x2="126.574" y2="693.099" fill="none" stroke="#411454" stroke-miterlimit="10" stroke-width="2.001"/>
    <line x1="107.7" y1="651.533" x2="107.7" y2="693.099" fill="none" stroke="#411454" stroke-miterlimit="10" stroke-width="2.001"/>
    <line x1="89.905" y1="655.41" x2="89.905" y2="695.256" fill="none" stroke="#411454" stroke-miterlimit="10" stroke-width="2.001"/>
    <line x1="78.221" y1="657.681" x2="78.221" y2="695.256" fill="none" stroke="#411454" stroke-miterlimit="10" stroke-width="2.001"/>
    <line x1="63.662" y1="661.468" x2="63.662" y2="695.256" fill="none" stroke="#411454" stroke-miterlimit="10" stroke-width="2.001"/>
    <line x1="535.153" y1="618.517" x2="535.153" y2="689.28" fill="none" stroke="#411454" stroke-miterlimit="10" stroke-width="2.001"/>
    <line x1="298.775" y1="685.296" x2="347.488" y2="685.296" fill="none" stroke="#411454" stroke-miterlimit="10" stroke-width="2.001"/>
    <line x1="462.528" y1="685.296" x2="511.24" y2="685.296" fill="none" stroke="#411454" stroke-miterlimit="10" stroke-width="2.001"/>
  </g>
  <polygon points="549.842 765.737 549.842 606.909 648.723 527.668 738.225 598.063 738.225 764.334 549.842 765.737" fill="#f5ff6d"/>
  <g>
    <g>
      <polyline points="544.06 776.083 544.06 597.314 644 517.812 743.941 597.314" fill="none" stroke="#411454" stroke-miterlimit="10" stroke-width="2.001"/>
      <rect x="610.741" y="612.45" width="25.89" height="28.235" fill="none" stroke="#411454" stroke-miterlimit="10" stroke-width="2.001"/>
      <rect x="651.511" y="612.45" width="25.89" height="28.235" fill="none" stroke="#411454" stroke-miterlimit="10" stroke-width="2.001"/>
      <rect x="691.578" y="612.45" width="25.89" height="28.235" fill="none" stroke="#411454" stroke-miterlimit="10" stroke-width="2.001"/>
      <rect x="570.532" y="662.301" width="25.89" height="28.235" fill="none" stroke="#411454" stroke-miterlimit="10" stroke-width="2.001"/>
      <rect x="610.741" y="662.301" width="25.89" height="28.235" fill="none" stroke="#411454" stroke-miterlimit="10" stroke-width="2.001"/>
      <rect x="651.511" y="662.301" width="25.89" height="28.235" fill="none" stroke="#411454" stroke-miterlimit="10" stroke-width="2.001"/>
      <rect x="691.578" y="662.301" width="25.89" height="28.235" fill="none" stroke="#411454" stroke-miterlimit="10" stroke-width="2.001"/>
      <rect x="610.741" y="713.54" width="25.89" height="28.235" fill="none" stroke="#411454" stroke-miterlimit="10" stroke-width="2.001"/>
      <rect x="651.511" y="713.54" width="25.89" height="28.235" fill="none" stroke="#411454" stroke-miterlimit="10" stroke-width="2.001"/>
      <rect x="691.578" y="713.54" width="25.89" height="28.235" fill="none" stroke="#411454" stroke-miterlimit="10" stroke-width="2.001"/>
    </g>
    <g>
      <polyline points="744.007 723.509 744.007 597.314 843.947 517.812 943.887 597.314 943.954 679.292" fill="none" stroke="#411454" stroke-miterlimit="10" stroke-width="2.001"/>
      <rect x="770.479" y="612.45" width="25.89" height="28.235" fill="none" stroke="#411454" stroke-miterlimit="10" stroke-width="2.001"/>
      <rect x="810.688" y="612.45" width="25.89" height="28.235" fill="none" stroke="#411454" stroke-miterlimit="10" stroke-width="2.001"/>
      <rect x="851.458" y="612.45" width="25.89" height="28.235" fill="none" stroke="#411454" stroke-miterlimit="10" stroke-width="2.001"/>
      <rect x="891.525" y="612.45" width="25.89" height="28.235" fill="#fff"/>
      <rect x="770.479" y="662.301" width="25.89" height="28.235" fill="none" stroke="#411454" stroke-miterlimit="10" stroke-width="2.001"/>
      <rect x="810.688" y="662.301" width="25.89" height="28.235" fill="#fff"/>
      <rect x="851.458" y="662.301" width="25.89" height="28.235" fill="#fff"/>
      <rect x="891.525" y="662.301" width="25.89" height="28.235" fill="none" stroke="#411454" stroke-miterlimit="10" stroke-width="2.001"/>
      <rect x="770.479" y="713.54" width="25.89" height="28.235" fill="none" stroke="#411454" stroke-miterlimit="10" stroke-width="2.001"/>
      <rect x="810.688" y="713.54" width="25.89" height="28.235" fill="none" stroke="#411454" stroke-miterlimit="10" stroke-width="2.001"/>
      <rect x="851.458" y="713.54" width="25.89" height="28.235" fill="none" stroke="#411454" stroke-miterlimit="10" stroke-width="2.001"/>
      <rect x="891.525" y="713.54" width="25.89" height="28.235" fill="none" stroke="#411454" stroke-miterlimit="10" stroke-width="2.001"/>
    </g>
    <polyline points="943.954 597.314 1043.894 517.812 1143.834 597.314 1143.9 776.385" fill="none" stroke="#411454" stroke-miterlimit="10" stroke-width="2.001"/>
    <rect x="970.426" y="612.45" width="25.89" height="28.235" fill="none" stroke="#411454" stroke-miterlimit="10" stroke-width="2.001"/>
    <polyline points="1030.982 777.393 1030.982 612.45 1056.872 612.45 1056.872 777.393" fill="none" stroke="#411454" stroke-miterlimit="10" stroke-width="2.001"/>
    <rect x="1091.472" y="612.45" width="25.89" height="28.235" fill="none" stroke="#411454" stroke-miterlimit="10" stroke-width="2.001"/>
    <rect x="970.426" y="662.301" width="25.89" height="28.235" fill="none" stroke="#411454" stroke-miterlimit="10" stroke-width="2.001"/>
    <rect x="1091.472" y="662.301" width="25.89" height="28.235" fill="none" stroke="#411454" stroke-miterlimit="10" stroke-width="2.001"/>
    <rect x="970.426" y="713.54" width="25.89" height="28.235" fill="none" stroke="#411454" stroke-miterlimit="10" stroke-width="2.001"/>
    <rect x="1091.472" y="713.54" width="25.89" height="28.235" fill="none" stroke="#411454" stroke-miterlimit="10" stroke-width="2.001"/>
  </g>
  <g>
    <path d="M648.819,314.722l-30.418-32.041-26.123,28.062h-19.917c0-24.683-20.009-44.692-44.691-44.692s-44.692,20.009-44.692,44.692h-19.917l-26.123-28.062-30.588,32.22v20.259" fill="none" stroke="#411454" stroke-miterlimit="10" stroke-width="2.001"/>
    <path d="M527.669,299.982c-4.109,0-7.439,3.331-7.439,7.439v9.243h14.878v-9.243c0-4.108-3.331-7.439-7.439-7.439h0Z" fill="none" stroke="#411454" stroke-miterlimit="10" stroke-width="2.001"/>
    <line x1="478.266" y1="348.871" x2="478.266" y2="406.132" fill="none" stroke="#411454" stroke-miterlimit="10" stroke-width="2.001"/>
    <line x1="578.112" y1="367.505" x2="578.112" y2="416.126" fill="none" stroke="#411454" stroke-miterlimit="10" stroke-width="2.001"/>
    <line x1="436.937" y1="282.681" x2="492.331" y2="282.681" fill="none" stroke="#411454" stroke-miterlimit="10" stroke-width="2.001"/>
    <line x1="618.401" y1="282.681" x2="565.266" y2="282.681" fill="none" stroke="#411454" stroke-miterlimit="10" stroke-width="2.001"/>
    <path d="M648.988,335.16v-20.259l-30.588-32.22" fill="none" stroke="#411454" stroke-miterlimit="10" stroke-width="2.001"/>
    <polyline points="649.785 405.176 649.657 341.924 632.736 341.924 405.68 341.924 405.552 392.432" fill="none" stroke="#411454" stroke-miterlimit="10" stroke-width="2.001"/>
    <line x1="463.06" y1="310.743" x2="463.06" y2="335.16" fill="none" stroke="#411454" stroke-miterlimit="10" stroke-width="2.001"/>
    <line x1="592.278" y1="310.743" x2="592.278" y2="335.16" fill="none" stroke="#411454" stroke-miterlimit="10" stroke-width="2.001"/>
  </g>
  <g>
    <path d="M746.002,744.583c-.698,4.666,1.844,8.913,5.679,9.487s7.509-2.744,8.207-7.409-1.844-8.913-5.679-9.487c-3.834-.574-7.509,2.744-8.207,7.409Z" fill="none" stroke="#411454" stroke-miterlimit="10" stroke-width="2.001"/>
    <path d="M729.724,799.901c-3.523-5.389-5.413-19.493-1.447-28.516,4.77-10.851,12.493-17.252,12.493-17.252l10.642,7.932" fill="none" stroke="#411454" stroke-miterlimit="10" stroke-width="2.001"/>
    <path d="M734.604,793.913c-.526-5.016-1.023-11.489-.342-13.406,1.158-3.264,8.212-14.93,8.212-14.93" fill="none" stroke="#411454" stroke-miterlimit="10" stroke-width="2.001"/>
    <path d="M760.003,756.117s15.07,10.708,15.467,14.277-21.019,10.51-21.019,10.51" fill="none" stroke="#411454" stroke-miterlimit="10" stroke-width="2.001"/>
    <path d="M760.003,760.48s1.388,10.906,1.785,13.286" fill="none" stroke="#411454" stroke-miterlimit="10" stroke-width="2.001"/>
    <polyline points="761.788 780.904 764.366 809.128 764.964 847.2" fill="none" stroke="#411454" stroke-miterlimit="10" stroke-width="2.001"/>
    <line x1="748.205" y1="812.3" x2="760.896" y2="812.3" fill="none" stroke="#411454" stroke-miterlimit="10" stroke-width="2.001"/>
    <line x1="733.729" y1="847.2" x2="738.202" y2="825.027" fill="none" stroke="#411454" stroke-miterlimit="10" stroke-width="2.001"/>
    <rect x="715.388" y="800.243" width="31.925" height="22.804" fill="none" stroke="#411454" stroke-miterlimit="10" stroke-width="2.001"/>
  </g>
  <g>
    <path d="M1218.578,665.183c.846,3.494,2.642,4.939,6.032,6.05,1.095.359,2.289.603,3.391.267.906-.276,1.662-.925,2.232-1.681,2.71-3.596,2.066-7.435.353-11.318-.918-2.082-2.316-5.036-4.749-5.651-1.695-.429-3.563-.044-5.199.443-7.773,2.316-4.08,7.678-4.08,7.678" fill="none" stroke="#411454" stroke-miterlimit="10" stroke-width="2.001"/>
    <path d="M1213.455,777.836l2.288-25.585s-3.616-19.463-1.826-37.956" fill="none" stroke="#411454" stroke-miterlimit="10" stroke-width="2.001"/>
    <path d="M1230.025,674.314h1.233c2.544,0,4.879,1.406,6.07,3.654l12.051,22.762,13.527-9.912" fill="none" stroke="#411454" stroke-miterlimit="10" stroke-width="2.001"/>
    <polyline points="1239.895 690.819 1241.192 718.516 1239.942 746.315 1241.794 776.877" fill="none" stroke="#411454" stroke-miterlimit="10" stroke-width="2.001"/>
    <path d="M1240.544,715.476s-13.876,3.447-22.582,2.056" fill="none" stroke="#411454" stroke-miterlimit="10" stroke-width="2.001"/>
    <polyline points="1220.846 674.314 1212.328 677.297 1203.579 706.13 1186.385 717.322" fill="none" stroke="#411454" stroke-miterlimit="10" stroke-width="2.001"/>
    <polyline points="1219.409 776.904 1225.95 751.72 1229.253 727.605" fill="none" stroke="#411454" stroke-miterlimit="10" stroke-width="2.001"/>
    <line x1="1213.172" y1="693.205" x2="1213.455" y2="708.715" fill="none" stroke="#411454" stroke-miterlimit="10" stroke-width="2.001"/>
  </g>
  <path d="M587.455,779.899c-1.866-6.278-.299-13.465,4.011-18.397s11.222-7.447,17.693-6.44c4.47.696,8.561,2.922,12.28,5.499,4.659,3.228,10.356,7.256,15.422,4.714,3.104-1.557,4.652-5.12,7.403-7.239,5.2-4.007,12.753-1.755,18.543,1.34,5.789,3.095,11.915,7.026,18.374,5.855,3.336-.605,6.286-2.535,9.554-3.437,5.227-1.442,11.155.006,15.129,3.694,3.974,3.689,5.858,9.493,4.809,14.812l-123.218-.401h0Z" fill="#72be4a"/>
  <path d="M877.348,532.844c4.146-.484,189.996-342.516,189.996-342.516l195.563,342.237-125.779,37.857-93.201-72.714-105.201,83.119-61.378-47.983h0Z" fill="#f5ff6d"/>
  <g>
    <polyline points="1272.456 532.844 1068.844 176.666 870.013 532.565" fill="none" stroke="#411454" stroke-miterlimit="10" stroke-width="2.001"/>
    <polyline points="932.289 522.839 1067.344 271.069 1218.155 532.565" fill="none" stroke="#411454" stroke-miterlimit="10" stroke-width="2.001"/>
    <line x1="1067.344" y1="201.793" x2="1067.344" y2="522.839" fill="none" stroke="#411454" stroke-miterlimit="10" stroke-width="2.001"/>
    <line x1="1026.827" y1="294.75" x2="1107.86" y2="294.75" fill="none" stroke="#411454" stroke-miterlimit="10" stroke-width="2.001"/>
    <line x1="979.558" y1="480.081" x2="1162.633" y2="480.081" fill="none" stroke="#411454" stroke-miterlimit="10" stroke-width="2.001"/>
  </g>
  <path d="M561.796,751.407c3.646,5.097,10.277,7.524,16.578,5.537s10.341-7.778,10.404-14.044l-26.982,8.507Z" fill="#72be4a"/>
  <path d="M562.538,722.71c3.233,2.591,7.888,2.948,11.542.556,3.655-2.393,5.189-6.802,4.107-10.801l-15.649,10.245Z" fill="#72be4a"/>
  <line x1="984.85" y1="777.491" x2="1473.655" y2="777.491" fill="none" stroke="#411454" stroke-miterlimit="10" stroke-width="2.001"/>
  <g>
    <ellipse cx="1177.161" cy="593.775" rx="25.161" ry="54.233" fill="#72be4a"/>
    <line x1="1176.623" y1="777.491" x2="1176.623" y2="618.796" fill="none" stroke="#411454" stroke-miterlimit="10" stroke-width="2.001"/>
  </g>
  <g>
    <line x1="777.236" y1="339.16" x2="777.236" y2="196.368" fill="none" stroke="#fff" stroke-miterlimit="10" stroke-width="2"/>
    <line x1="669.44" y1="386.794" x2="669.44" y2="195.636" fill="none" stroke="#fff" stroke-miterlimit="10" stroke-width="2"/>
    <polyline points="983.816 240.118 968.331 240.118 968.331 223.895" fill="none" stroke="#fff" stroke-miterlimit="10" stroke-width="2"/>
    <polyline points="935.886 240.118 920.4 240.118 920.4 223.895" fill="none" stroke="#fff" stroke-miterlimit="10" stroke-width="2"/>
    <polyline points="887.955 240.118 872.47 240.118 872.47 223.895" fill="none" stroke="#fff" stroke-miterlimit="10" stroke-width="2"/>
    <polyline points="840.025 240.118 824.539 240.118 824.539 223.895" fill="none" stroke="#fff" stroke-miterlimit="10" stroke-width="2"/>
    <polyline points="935.886 281.412 920.4 281.412 920.4 265.189" fill="none" stroke="#fff" stroke-miterlimit="10" stroke-width="2"/>
    <polyline points="887.955 281.412 872.47 281.412 872.47 265.189" fill="none" stroke="#fff" stroke-miterlimit="10" stroke-width="2"/>
    <polyline points="840.025 281.412 824.539 281.412 824.539 265.189" fill="none" stroke="#fff" stroke-miterlimit="10" stroke-width="2"/>
    <polyline points="840.025 322.706 824.539 322.706 824.539 306.483" fill="none" stroke="#fff" stroke-miterlimit="10" stroke-width="2"/>
    <polyline points="1026.827 182.467 666.987 182.467 666.987 194.254 1002.909 194.254" fill="none" stroke="#fff" stroke-miterlimit="10" stroke-width="2"/>
  </g>
  <path d="M871.746,100.39c-17.368-6.963-36.603-9.206-55.107-6.426-7.397,1.111-17.041,1.937-20.267-4.812-.966-2.022-1.063-4.358-1.91-6.433-2.87-7.026-15.243-7.774-17.622.584-.764,2.683-3.212,4.682-5.979,4.329-3.237-.413-3.456-3.934-4.553-6.504-2.569-6.021-11.271-7.108-16.934-3.825-5.663,3.284-8.972,9.389-12.001,15.193-1.519-10.179-5.104-20.045-10.473-28.824-3.442-5.628-8.894-11.488-16.245-8.111-1.681.772-3.141,1.953-4.393,3.315-7.213,7.847-13.599,18.574-11.587,29.031" fill="none" stroke="#fff" stroke-miterlimit="10" stroke-width="2"/>
  <path d="M617.777,22.286c-3.421-9.53-11.657-19.884-21.707-21.125-10.05-1.241-20.188,4.811-25.254,13.579-5.066,8.768-5.494,19.706-2.713,29.442-.474-11.282-11.383-21.038-22.647-20.255-11.265.783-20.718,11.956-19.626,23.195-1.169-7.589-7.979-13.93-15.632-14.556-7.653-.625-16.449,4.263-17.787,11.824-2.303,13.014,30.62,22.159,49.642,14.843,19.022-7.316,36.578.99,53.043-2.561" fill="none" stroke="#fff" stroke-miterlimit="10" stroke-width="2"/>
  <g>
    <polyline points="234.559 437.682 234.559 366.397 117.498 366.397 117.498 575.058" fill="none" stroke="#fff" stroke-miterlimit="10" stroke-width="2"/>
    <polyline points="199.091 366.397 199.091 311.885 152.966 311.885 152.966 365.698" fill="none" stroke="#fff" stroke-miterlimit="10" stroke-width="2"/>
    <g>
      <line x1="214.719" y1="384.762" x2="214.719" y2="407.125" fill="none" stroke="#fff" stroke-miterlimit="10" stroke-width="2"/>
      <line x1="175.582" y1="384.762" x2="175.582" y2="407.125" fill="none" stroke="#fff" stroke-miterlimit="10" stroke-width="2"/>
      <line x1="156.014" y1="384.762" x2="156.014" y2="407.125" fill="none" stroke="#fff" stroke-miterlimit="10" stroke-width="2"/>
      <line x1="136.445" y1="384.762" x2="136.445" y2="407.125" fill="none" stroke="#fff" stroke-miterlimit="10" stroke-width="2"/>
    </g>
    <g>
      <line x1="214.719" y1="425.995" x2="214.719" y2="448.359" fill="none" stroke="#fff" stroke-miterlimit="10" stroke-width="2"/>
      <line x1="175.582" y1="425.995" x2="175.582" y2="448.359" fill="none" stroke="#fff" stroke-miterlimit="10" stroke-width="2"/>
      <line x1="156.014" y1="425.995" x2="156.014" y2="448.359" fill="none" stroke="#fff" stroke-miterlimit="10" stroke-width="2"/>
      <line x1="136.445" y1="425.995" x2="136.445" y2="448.359" fill="none" stroke="#fff" stroke-miterlimit="10" stroke-width="2"/>
    </g>
    <g>
      <line x1="214.719" y1="467.228" x2="214.719" y2="489.592" fill="none" stroke="#fff" stroke-miterlimit="10" stroke-width="2"/>
      <line x1="175.582" y1="467.228" x2="175.582" y2="489.592" fill="none" stroke="#fff" stroke-miterlimit="10" stroke-width="2"/>
      <line x1="156.014" y1="467.228" x2="156.014" y2="489.592" fill="none" stroke="#fff" stroke-miterlimit="10" stroke-width="2"/>
      <line x1="136.445" y1="467.228" x2="136.445" y2="489.592" fill="none" stroke="#fff" stroke-miterlimit="10" stroke-width="2"/>
    </g>
    <g>
      <line x1="214.719" y1="508.462" x2="214.719" y2="530.826" fill="none" stroke="#fff" stroke-miterlimit="10" stroke-width="2"/>
      <line x1="175.582" y1="508.462" x2="175.582" y2="530.826" fill="none" stroke="#fff" stroke-miterlimit="10" stroke-width="2"/>
      <line x1="156.014" y1="508.462" x2="156.014" y2="530.826" fill="none" stroke="#fff" stroke-miterlimit="10" stroke-width="2"/>
      <line x1="136.445" y1="508.462" x2="136.445" y2="530.826" fill="none" stroke="#fff" stroke-miterlimit="10" stroke-width="2"/>
    </g>
  </g>
  <g>
    <polyline points="911.94 430.438 911.94 404.08 869.308 361.449 833.666 397.091 738.225 397.091" fill="none" stroke="#fff" stroke-miterlimit="10" stroke-width="2"/>
    <line x1="869.308" y1="361.449" x2="708.123" y2="361.449" fill="none" stroke="#fff" stroke-miterlimit="10" stroke-width="2"/>
  </g>
  <g>
    <polyline points="367.907 359.089 367.907 229.146 326.984 229.146 300.233 203.288 274.686 228.835 235.122 228.835 235.122 381.558" fill="none" stroke="#fff" stroke-miterlimit="10" stroke-width="2"/>
    <rect x="294.526" y="251.51" width="11.881" height="11.881" fill="none" stroke="#fff" stroke-miterlimit="10" stroke-width="2"/>
    <line x1="300.233" y1="203.288" x2="490.559" y2="203.288" fill="none" stroke="#fff" stroke-miterlimit="10" stroke-width="2"/>
    <line x1="367.907" y1="229.146" x2="489.511" y2="229.146" fill="none" stroke="#fff" stroke-miterlimit="10" stroke-width="2"/>
    <polyline points="373.498 197.823 373.498 120.821 402.851 120.821 402.851 162.753 436.397 162.753 436.397 196.299" fill="none" stroke="#fff" stroke-miterlimit="10" stroke-width="2"/>
  </g>
  <g>
    <polyline points="490.212 266.052 490.212 160.016 554.508 160.016 612.514 102.009 666.634 159.322 729.331 159.322 729.331 173.491" fill="none" stroke="#fff" stroke-miterlimit="10" stroke-width="2"/>
    <line x1="644.034" y1="176.666" x2="496.308" y2="176.666" fill="none" stroke="#fff" stroke-miterlimit="10" stroke-width="2"/>
  </g>
  <g>
    <polyline points="1274.652 462.973 1274.652 220.743 1315.575 220.743 1342.326 194.885 1367.874 220.433 1407.438 220.433 1407.438 356.963" fill="none" stroke="#fff" stroke-miterlimit="10" stroke-width="2"/>
    <rect x="1336.153" y="243.107" width="11.881" height="11.881" fill="none" stroke="#fff" stroke-miterlimit="10" stroke-width="2"/>
    <rect x="1336.153" y="282.857" width="11.881" height="11.881" fill="none" stroke="#fff" stroke-miterlimit="10" stroke-width="2"/>
    <rect x="1336.153" y="322.608" width="11.881" height="11.881" fill="none" stroke="#fff" stroke-miterlimit="10" stroke-width="2"/>
    <line x1="1342.326" y1="194.885" x2="1107.86" y2="194.885" fill="none" stroke="#fff" stroke-miterlimit="10" stroke-width="2"/>
    <line x1="1274.652" y1="220.743" x2="1117.074" y2="220.743" fill="none" stroke="#fff" stroke-miterlimit="10" stroke-width="2"/>
    <polyline points="1241.022 265.854 1255.891 265.854 1255.891 250.984" fill="none" stroke="#fff" stroke-miterlimit="10" stroke-width="2"/>
    <polyline points="1202.595 265.854 1217.464 265.854 1217.464 250.984" fill="none" stroke="#fff" stroke-miterlimit="10" stroke-width="2"/>
    <polyline points="1241.022 305.985 1255.891 305.985 1255.891 291.115" fill="none" stroke="#fff" stroke-miterlimit="10" stroke-width="2"/>
    <polyline points="1202.595 305.985 1217.464 305.985 1217.464 291.115" fill="none" stroke="#fff" stroke-miterlimit="10" stroke-width="2"/>
    <polyline points="1241.022 346.116 1255.891 346.116 1255.891 331.247" fill="none" stroke="#fff" stroke-miterlimit="10" stroke-width="2"/>
    <polyline points="1202.595 346.116 1217.464 346.116 1217.464 331.247" fill="none" stroke="#fff" stroke-miterlimit="10" stroke-width="2"/>
  </g>
  <g>
    <path d="M208.836,862.655h-33.54c-3.027,0-5.758-1.267-7.692-3.3-.239-.251-.451-.526-.655-.807-1.092-1.503-1.68-3.312-1.68-5.17v-71.563c.978-3.649,3.14-6.921,6.21-9.261,3.006-2.29,6.68-3.53,10.458-3.53h295.161c3.044,0,5.667,0,7.259,4.38.599,2.205,11.395,35.311,12.007,37.186s1.553,5.205,1.553,7.125c0,12.776.04,27.978.04,27.978v3.063c0,7.675-6.222,13.897-13.897,13.897h.778-4.065" fill="none" stroke="#411454" stroke-linejoin="round" stroke-width="2"/>
    <path d="M208.836,862.859c0,7.847,6.361,14.208,14.208,14.208s14.208-6.361,14.208-14.208-6.361-14.208-14.208-14.208-14.208,6.361-14.208,14.208h0Z" fill="none" stroke="#411454" stroke-linejoin="round" stroke-width="2"/>
    <circle cx="466.566" cy="862.858" r="14.208" transform="translate(-512.713 806.112) rotate(-58.283)" fill="none" stroke="#411454" stroke-linejoin="round" stroke-width="2"/>
    <polyline points="237.251 862.167 448.806 862.655 452.358 862.655" fill="none" stroke="#411454" stroke-linejoin="round" stroke-width="2"/>
    <path d="M459.943,862.859c0,3.657,2.965,6.622,6.622,6.622s6.622-2.965,6.622-6.622-2.965-6.622-6.622-6.622-6.622,2.965-6.622,6.622Z" fill="none" stroke="#411454" stroke-linejoin="round" stroke-width="2"/>
    <path d="M216.421,862.859c0,3.657,2.965,6.622,6.622,6.622s6.622-2.965,6.622-6.622-2.965-6.622-6.622-6.622-6.622,2.965-6.622,6.623h0Z" fill="none" stroke="#411454" stroke-linejoin="round" stroke-width="2"/>
    <path d="M489.151,821.076h-46.635v-45.568h36.548s11.928,40.333,12.384,42.209c.399,1.645.039,3.359-2.297,3.359h0Z" fill="none" stroke="#411454" stroke-linejoin="round" stroke-width="2"/>
    <rect x="403.191" y="774.781" width="33.848" height="87.874" fill="none" stroke="#411454" stroke-linejoin="round" stroke-width="2"/>
    <line x1="420.115" y1="786.803" x2="420.115" y2="851.767" fill="none" stroke="#411454" stroke-linejoin="round" stroke-width="2"/>
    <rect x="253.988" y="775.628" width="33.848" height="86.54" fill="none" stroke="#411454" stroke-linejoin="round" stroke-width="2"/>
    <line x1="270.912" y1="786.803" x2="270.912" y2="851.767" fill="none" stroke="#411454" stroke-linejoin="round" stroke-width="2"/>
    <line x1="403.06" y1="775.508" x2="247.813" y2="775.508" fill="none" stroke="#411454" stroke-linejoin="round" stroke-width="2"/>
    <line x1="403.191" y1="817.716" x2="287.836" y2="817.716" fill="none" stroke="#411454" stroke-linejoin="round" stroke-width="2"/>
    <line x1="253.948" y1="775.508" x2="168.48" y2="775.508" fill="none" stroke="#411454" stroke-linejoin="round" stroke-width="2"/>
    <line x1="254.078" y1="817.716" x2="165.269" y2="817.716" fill="none" stroke="#411454" stroke-linejoin="round" stroke-width="2"/>
    <line x1="373.622" y1="776.234" x2="373.622" y2="817.716" fill="none" stroke="#411454" stroke-linejoin="round" stroke-width="2"/>
    <line x1="344.996" y1="776.234" x2="344.996" y2="817.716" fill="none" stroke="#411454" stroke-linejoin="round" stroke-width="2"/>
    <line x1="316.371" y1="776.234" x2="316.371" y2="817.716" fill="none" stroke="#411454" stroke-linejoin="round" stroke-width="2"/>
    <line x1="287.746" y1="776.234" x2="287.746" y2="817.716" fill="none" stroke="#411454" stroke-linejoin="round" stroke-width="2"/>
    <line x1="227.299" y1="776.234" x2="227.299" y2="817.716" fill="none" stroke="#411454" stroke-linejoin="round" stroke-width="2"/>
    <line x1="198.674" y1="776.234" x2="198.674" y2="817.716" fill="none" stroke="#411454" stroke-linejoin="round" stroke-width="2"/>
  </g>
</svg>